<?xml version="1.0" encoding="utf-8"?>
<!-- Generator: Adobe Illustrator 25.3.1, SVG Export Plug-In . SVG Version: 6.00 Build 0)  -->
<svg version="1.1" id="Layer_1" xmlns="http://www.w3.org/2000/svg" xmlns:xlink="http://www.w3.org/1999/xlink" x="0px" y="0px"
	 viewBox="0 0 32 32" enable-background="new 0 0 32 32" xml:space="preserve">
<g>
	<g>
		<path fill="#64B5F6" d="M24.501,8.014c4.095,4.298,5.338,9.199,2.984,14.682c-1.967,4.582-5.709,6.966-10.647,7.638
			c0.035-8.555,0.071-17.084,0.106-25.633c0.388,0.067,0.743,0.14,1.102,0.182c0.096,0.011,0.249-0.042,0.3-0.117
			c0.75-1.104,1.851-1.618,3.119-1.742c2.143-0.209,3.994,0.481,5.528,1.999c0.45,0.445,0.445,0.45-0.038,0.84
			c-0.307,0.248-0.299,0.241-0.549-0.038c-1.005-1.124-2.282-1.703-3.766-1.846c-0.981-0.094-1.925,0.033-2.762,0.598
			c-0.225,0.152-0.411,0.36-0.586,0.517c0.88,0.385,1.745,0.728,2.575,1.139c0.531,0.263,1.01,0.63,1.519,0.939
			c0.086,0.052,0.219,0.095,0.306,0.068c1.571-0.493,2.921-0.077,4.102,0.998c0.641,0.583,1.053,1.315,1.282,2.153
			c0.054,0.197,0.009,0.282-0.196,0.313c-0.217,0.033-0.476,0.194-0.63,0.12c-0.141-0.068-0.172-0.373-0.241-0.578
			c-0.402-1.203-1.753-2.221-3.019-2.263C24.831,7.979,24.669,8.003,24.501,8.014z M18.693,19.148c0,0.167,0.011,0.386-0.003,0.602
			c-0.013,0.186,0.074,0.247,0.24,0.286c2.069,0.481,4.143-0.766,4.695-2.827c0.534-1.992-0.393-4.285-2.181-5.422
			c-0.748-0.476-1.551-0.763-2.443-0.765c-0.111,0-0.273-0.054-0.276,0.153c-0.003,0.228-0.001,0.456-0.001,0.7
			c0.095,0.006,0.16,0.011,0.225,0.013c2.407,0.072,4.326,2.449,3.888,4.815c-0.251,1.356-1.269,2.358-2.624,2.504
			C19.727,19.261,19.226,19.174,18.693,19.148z M23.01,19.629c0,0.392-0.045,0.74,0.01,1.072c0.103,0.62,0.127,0.617-0.453,0.901
			c-0.052,0.025-0.105,0.046-0.158,0.07c-1.112,0.49-2.296,0.687-3.485,0.868c-0.087,0.013-0.223,0.1-0.231,0.165
			c-0.028,0.235-0.011,0.475-0.011,0.72c0.058,0.01,0.096,0.027,0.13,0.022c0.513-0.075,1.029-0.133,1.537-0.234
			c1.125-0.224,2.231-0.505,3.214-1.139c0.063-0.041,0.206-0.004,0.29,0.04c0.265,0.139,0.52,0.299,0.806,0.467
			c0.123-0.326,0.219-0.582,0.28-0.744c-0.329-0.308-0.688-0.527-0.869-0.847c-0.186-0.328-0.199-0.755-0.299-1.186
			C23.593,19.763,23.333,19.703,23.01,19.629z M18.185,16.752c0.437,0.004,0.78-0.323,0.787-0.75
			c0.006-0.422-0.334-0.777-0.756-0.789c-0.421-0.012-0.774,0.33-0.784,0.758C17.422,16.403,17.755,16.748,18.185,16.752z"/>
	</g>
	<g>
		<path fill="#64B5F6" d="M7.507,7.79C6.072,7.421,4.854,8.025,3.716,9.652C3.454,9.515,3.188,9.375,2.902,9.224
			c0.393-0.841,0.97-1.471,1.742-1.907c1.146-0.648,2.347-0.81,3.602-0.321c0.08,0.031,0.2,0.049,0.266,0.011
			c0.765-0.438,1.524-0.889,2.298-1.344c-0.895-0.725-1.958-1.059-3.12-1.022C6.527,4.679,5.472,5.07,4.558,5.88
			C4.35,5.625,4.16,5.392,3.972,5.161c1.556-1.556,5.103-2.375,7.755,0.012c0.192-0.418,0.347-0.863,0.587-1.257
			c0.772-1.265,1.918-1.99,3.373-2.24c0.196-0.034,0.298,0.011,0.324,0.238c0.073,0.632,0.081,0.626-0.525,0.786
			c-1.262,0.335-2.153,1.099-2.688,2.365c0.647-0.136,1.247-0.262,1.871-0.392c0,8.555,0,17.078,0,25.646
			c-1.487-0.231-2.924-0.57-4.277-1.218c-2.395-1.146-4.274-2.858-5.607-5.153c-1.547-2.664-2.075-5.534-1.558-8.566
			C3.74,12.366,5.178,9.841,7.507,7.79z M12.919,6.996c-3.662,0.842-7.933,4.593-8.023,10.389
			c-0.086,5.501,3.863,9.619,7.976,10.645c0.005-0.087,0.013-0.171,0.014-0.254c0.003-1.241,0.006-2.483,0.007-3.724
			c0.001-0.629-0.003-0.617-0.629-0.712c-1.3-0.197-2.562-0.518-3.706-1.204c-0.062-0.037-0.189-0.009-0.266,0.029
			c-0.277,0.138-0.546,0.294-0.84,0.455c-0.13-0.34-0.234-0.613-0.342-0.894c0.911-0.343,1.269-0.985,1.117-1.93
			c0.302-0.066,0.589-0.128,0.871-0.189c0.152,0.41,0.16,0.897-0.018,1.408c-0.071,0.205-0.02,0.29,0.151,0.382
			c1.135,0.609,2.373,0.853,3.656,1.062c0-1.001,0-1.974,0-2.968c-0.122,0.027-0.215,0.049-0.308,0.069
			c-1.12,0.231-2.17,0.097-3.079-0.645c-1.114-0.911-1.472-2.113-1.292-3.508c0.25-1.939,1.85-3.578,3.786-3.863
			c0.3-0.044,0.606-0.049,0.925-0.073C12.919,9.973,12.919,8.485,12.919,6.996z M13.288,16.751c0.438,0.005,0.778-0.315,0.79-0.743
			c0.012-0.424-0.351-0.796-0.778-0.796c-0.42,0.001-0.771,0.35-0.772,0.769C12.527,16.416,12.853,16.747,13.288,16.751z"/>
	</g>
</g>
</svg>
