<?xml version="1.0" encoding="utf-8"?>
<!-- Generator: Adobe Illustrator 25.3.1, SVG Export Plug-In . SVG Version: 6.00 Build 0)  -->
<svg version="1.1" id="Layer_1" xmlns="http://www.w3.org/2000/svg" xmlns:xlink="http://www.w3.org/1999/xlink" x="0px" y="0px"
	 viewBox="0 0 128 128" enable-background="new 0 0 128 128" xml:space="preserve">
<g opacity="0.39">
	<path fill="#64B5F6" d="M116.306,64c0,6.819-5.227,12.551-7.686,18.481c-2.549,6.147-3.001,13.873-7.634,18.505
		c-4.633,4.633-12.358,5.085-18.505,7.634c-5.93,2.459-11.662,7.686-18.481,7.686c-6.819,0-12.551-5.227-18.481-7.686
		c-6.147-2.549-13.873-3.001-18.505-7.634c-4.633-4.633-5.085-12.358-7.634-18.505c-2.459-5.93-7.686-11.662-7.686-18.481
		c0-6.819,5.227-12.551,7.686-18.481c2.549-6.147,3.001-13.873,7.634-18.505c4.633-4.633,12.358-5.085,18.505-7.634
		c5.93-2.459,11.662-7.686,18.481-7.686c6.819,0,12.551,5.227,18.481,7.686c6.147,2.549,13.873,3.001,18.505,7.634
		c4.633,4.633,5.085,12.358,7.634,18.505C111.079,51.449,116.306,57.181,116.306,64z"/>
</g>
<g>
	<path fill="none" stroke="#64B5F6" stroke-miterlimit="10" d="M116.306,64c0,6.819-5.227,12.551-7.686,18.481
		c-2.549,6.147-3.001,13.873-7.634,18.505c-4.633,4.633-12.358,5.085-18.505,7.634c-5.93,2.459-11.662,7.686-18.481,7.686
		c-6.819,0-12.551-5.227-18.481-7.686c-6.147-2.549-13.873-3.001-18.505-7.634c-4.633-4.633-5.085-12.358-7.634-18.505
		c-2.459-5.93-7.686-11.662-7.686-18.481c0-6.819,5.227-12.551,7.686-18.481c2.549-6.147,3.001-13.873,7.634-18.505
		c4.633-4.633,12.358-5.085,18.505-7.634c5.93-2.459,11.662-7.686,18.481-7.686c6.819,0,12.551,5.227,18.481,7.686
		c6.147,2.549,13.873,3.001,18.505,7.634c4.633,4.633,5.085,12.358,7.634,18.505C111.079,51.449,116.306,57.181,116.306,64z"/>
</g>
</svg>
